<?xml version="1.0" encoding="UTF-8"?>
<!DOCTYPE svg PUBLIC "-//W3C//DTD SVG 1.1//EN" "http://www.w3.org/Graphics/SVG/1.1/DTD/svg11.dtd">
<!-- Creator: CorelDRAW 2020 (64 Bit) -->
<svg xmlns="http://www.w3.org/2000/svg" xml:space="preserve" width="53.5254mm" height="46.2508mm" version="1.1" style="shape-rendering:geometricPrecision; text-rendering:geometricPrecision; image-rendering:optimizeQuality; fill-rule:evenodd; clip-rule:evenodd"
viewBox="0 0 5352.54 4625.08"
 xmlns:xlink="http://www.w3.org/1999/xlink"
 xmlns:xodm="http://www.corel.com/coreldraw/odm/2003">
 <defs>
  <style type="text/css">
   <![CDATA[
    .fil0 {fill:white;fill-rule:nonzero}
   ]]>
  </style>
 </defs>
 <g id="Camada_x0020_1">
  <metadata id="CorelCorpID_0Corel-Layer"/>
  <g id="_3054680997648">
   <path class="fil0" d="M2395.59 0.9c-103.06,-14.67 -206.2,152.68 -239.9,389.28 -2.98,21.03 -5.05,41.5 -6.72,61.66l-206.98 1903.07c34.11,4.82 70.98,8.67 110.48,10.81 44.75,2.43 86.38,2.33 124.45,0.71l316.62 -1790.49c-11.43,-5.43 -23.23,-10.42 -35.09,-14.81 -10.42,-3.86 -21.11,-7.19 -31.89,-10.25 -30.03,158.29 -82.66,348.9 -157.45,338.25 -95.53,-13.6 -64.71,-332.54 -42.46,-488.84 16.08,-112.88 78.76,-293.38 152.35,-282.9 83.98,11.96 84.75,158.29 72.8,270.27 14.06,4.48 28.22,9.08 42.61,13.97 8.89,3.02 17.83,6.14 26.74,9.29 25.08,-222.08 -27.01,-395.99 -125.56,-410.02z"/>
   <path class="fil0" d="M2023.14 2525.49c43.93,3.13 85.63,4.36 124.92,4.26l24.4 -138.07c-12.54,0.14 -28.3,0.24 -46.52,0.14 -27.06,-0.13 -56.94,-0.65 -74.7,-1.32 -24.71,-0.92 -62.12,-3.56 -111.93,-11.01l-14.8 136.01c31.29,4.09 64.15,7.52 98.63,9.99z"/>
   <path class="fil0" d="M2133.08 2554.99c-37.01,0 -74.11,-1.3 -110.86,-3.9 -33.46,-2.36 -67.1,-5.87 -100.45,-10.38l-219.88 2021.4c-3.84,31.61 11.35,59.36 34.27,62.63 22.92,3.26 45.25,-19.16 50.38,-50.57l357.06 -2019.28c-3.5,0.02 -7,0.1 -10.52,0.1z"/>
   <path class="fil0" d="M1692.67 4405.04c1.9,-17.38 4.09,-34.83 6.42,-52.17 -127.51,-28.3 -252.23,-69.08 -371.7,-121.85 -94.72,-41.49 -186.37,-89.96 -274.1,-144.7 -87.55,-55.02 -171.03,-116.44 -249.78,-183.36 -157.78,-133.55 -295.29,-290.64 -407.55,-463.68 -14.33,-21.46 -27.19,-43.82 -40.88,-65.68 -12.99,-22.25 -25.72,-44.7 -38.28,-67.18 -11.89,-22.81 -24.38,-45.3 -35.35,-68.58 -5.57,-11.59 -11.46,-23.02 -16.78,-34.73l-15.88 -35.16c-20.6,-47.13 -39.79,-94.89 -56.36,-143.6 -17.15,-48.5 -31.57,-97.92 -44.65,-147.64 -51.75,-199.19 -70.29,-406.5 -56.52,-611.61 26.23,-410.35 181.58,-811.46 437.67,-1132.27 128.41,-159.83 280.08,-301.43 452.13,-412.04l32.21 -20.75c5.4,-3.41 10.65,-7.04 16.18,-10.27l16.63 -9.46 66.6 -37.85 68.49 -34.2 17.14 -8.5 17.56 -7.57 35.12 -15.16 35.12 -15.16 35.91 -13.12 35.91 -13.15 17.93 -6.57 18.27 -5.59 73.15 -22.1c24.68,-6.26 49.52,-11.92 74.25,-17.94 24.62,-6.61 49.9,-10.08 74.92,-14.72l37.59 -6.66c6.25,-1.26 12.55,-2.09 18.88,-2.72l18.97 -2.18c25.31,-2.78 50.53,-6.25 75.86,-8.47l76.24 -4.26 19.06 -1.05 19.1 0.1 38.17 0.19 38.18 0.13c12.73,0 25.41,1.44 38.12,2.08 25.41,1.71 50.85,3.11 76.2,5.03l31.84 2.43 12.54 1.69c1.7,-17.51 3.6,-35.08 5.89,-52.44 2.53,-19.3 5.58,-38.64 8.86,-57.9l-14.53 -1.79 -34.46 -2.36c-27.02,-1.84 -54.08,-3.12 -81.09,-4.66 -13.53,-0.57 -27.01,-1.9 -40.56,-1.81l-40.63 0.18 -40.63 0.2 -20.29 0.11 -20.3 1.29 -81.08 5.26c-26.94,2.63 -53.78,6.51 -80.67,9.72l-20.13 2.54c-6.74,0.75 -13.45,1.71 -20.09,3.08l-39.93 7.41c-26.58,5.18 -53.41,9.22 -79.54,16.39 -26.27,6.57 -52.62,12.81 -78.8,19.68l-77.55 24 -19.36 6.1 -19.01 7.09 -38 14.21 -38 14.23 -37.12 16.31 -37.12 16.34 -18.56 8.19 -18.11 9.1 -72.24 36.75 -70.16 40.5 -17.51 10.16c-5.81,3.44 -11.35,7.31 -17.04,10.95l-33.87 22.15c-180.83,118.15 -339.23,268.21 -472.66,436.77 -266.04,338.29 -425.02,758.19 -449.45,1187.02 -12.52,214.28 8.74,430.69 64.52,637.93 14.07,51.75 29.58,103.15 47.9,153.58 17.72,50.62 38.15,100.27 60.08,149.2l16.86 36.52c5.64,12.17 11.87,24.04 17.82,36.07 11.64,24.16 24.84,47.51 37.45,71.17 13.26,23.28 26.67,46.43 40.36,69.4 14.37,22.57 27.96,45.64 42.99,67.77 117.99,178.47 261.72,339.7 425.92,476.32 81.99,68.42 168.73,131.1 259.6,187.11 91.04,55.74 186.07,104.93 284.2,146.9 125.63,53.99 256.7,95.14 390.53,123.04 0.33,-3.23 0.62,-6.49 0.98,-9.73z"/>
   <path class="fil0" d="M3727.59 3638.48c5.23,4.22 10.56,8.34 15.93,12.37l48.42 -62.71c8.27,-10.35 15.73,-21.32 23.38,-32.14l22.9 -32.49c60.14,-87.27 113.99,-178.87 160.49,-274.1 46.76,-95.09 85.1,-194.32 115.09,-295.93 29.9,-101.62 51.48,-205.78 62.88,-311.09l7.21 -79.12c1.17,-26.44 1.7,-52.92 2.57,-79.37 1.48,-26.45 -0.13,-52.92 -0.69,-79.36l-1.13 -39.67c-0.34,-13.21 -1.98,-26.37 -2.93,-39.56l-3.31 -39.53c-1.08,-13.18 -2.04,-26.36 -4.12,-39.43l-10.82 -78.56 -14.66 -77.91c-2.15,-13.04 -5.74,-25.77 -8.64,-38.65l-9.14 -38.54c-51.57,-204.91 -135.01,-401.07 -243.01,-581.96 -1.87,-3.11 -5.88,-4.16 -9.01,-2.34 -3.15,1.83 -4.23,5.89 -2.39,9.04 105.28,181.13 185.74,376.82 234.37,580.14l8.6 38.23c2.7,12.79 6.12,25.41 8.09,38.34l13.6 77.15 9.76 77.7c1.91,12.91 2.69,25.95 3.61,38.96l2.81 39.04c0.76,13.01 2.24,26 2.44,39.04l0.64 39.12c0.24,26.07 1.54,52.15 -0.24,78.18 -1.17,26.05 -2,52.1 -3.45,78.12l-8.01 77.75c-12.35,103.46 -34.53,205.65 -64.95,305.26 -30.49,99.59 -69.15,196.75 -116.06,289.76 -46.65,93.14 -100.47,182.62 -160.42,267.76l-22.82 31.69c-7.62,10.55 -15.03,21.25 -23.28,31.33l-48.25 61.25c4.8,4.15 9.65,8.27 14.54,12.23z"/>
   <path class="fil0" d="M3648.67 3735.68c-6.5,-4.97 -12.7,-9.88 -18.82,-14.79l-20.66 22.11c-71.89,75.27 -148.98,145.49 -230.54,210.07 -81.53,64.63 -168.39,122.31 -258.34,174.27 -90.14,51.57 -183.53,97.78 -280.52,134.88 -96.78,37.5 -196.21,67.88 -297.34,90.75 -101.19,22.69 -204.25,36.15 -307.55,42.7l-38.79 1.98c-12.93,0.57 -25.84,1.66 -38.79,1.36l-77.65 0.04c-25.86,-0.39 -51.7,-1.97 -77.54,-2.98 -25.78,-2.2 -51.62,-3.67 -77.33,-6.44 -26.35,-2.75 -52.6,-6.19 -78.81,-9.99 -2.06,13.07 -4.26,26.29 -6.65,39.73 -1.21,6.81 -2.51,13.37 -3.76,20.04 27.75,3.77 55.57,7.1 83.46,9.73 26.54,2.59 53.2,3.87 79.79,5.84 26.65,0.79 53.3,2.14 79.95,2.28l79.95 -0.85c13.34,0.16 26.63,-1.08 39.93,-1.8l39.88 -2.43c106.25,-7.8 212.05,-22.74 315.74,-47.07 103.61,-24.52 205.29,-56.73 304.06,-96.15 98.96,-39.02 194.05,-87.26 285.65,-140.9 91.42,-54.03 179.49,-113.83 262,-180.61 82.55,-66.7 160.41,-139.08 232.86,-216.49l23.22 -25.35c-4.46,-3.3 -8.87,-6.48 -13.4,-9.93z"/>
   <path class="fil0" d="M2696.41 2260.35c-44.48,-56.43 -91.59,-111.19 -141.59,-163.63 -74.74,-78.4 -157.79,-149.91 -247.27,-212.93l-18.1 -12.04c-3.4,19.12 -6.87,38.13 -10.25,57.35 -4.34,24.65 -8.59,49.21 -12.82,73.75 72.74,52.32 141.16,111.14 204.88,175.43 38.31,38.6 74.91,78.98 110.19,120.72l0.05 0.07 0.9 1.07 10.02 11.94 -0.07 0.02c16.78,20.3 33.7,41.31 50.65,62.96 12.99,16.61 25.6,33.08 37.83,49.4l0.04 -0.03c58.58,78.41 113.88,160.05 167.54,243.02 113.38,175.15 220.64,356.77 342.22,531.11 60.49,87.28 125.04,172.47 195.26,253.38 70.06,80.99 146.71,156.59 229.33,225.31 9.12,7.56 18.38,14.98 27.67,22.32 6.72,5.45 13.64,10.91 20.83,16.39 8.08,6.18 16.06,12.08 23.89,17.71l-0.01 0.02c62.03,45.64 127.48,86.83 195.93,122.58 48.44,23.84 97.45,46.78 148.71,64.19 25.21,9.75 51.4,16.8 77.26,24.61 6.44,2.06 12.98,3.74 19.6,5.2l19.75 4.65 19.73 4.63c6.58,1.57 13.15,3.14 19.87,4.05 106.29,20.7 215.28,24.26 322.01,12.92 106.81,-11.32 211.5,-37.13 311.17,-74.86 199.52,-75.45 380.11,-195.35 529,-344.94 2.46,-2.49 2.58,-6.52 0.18,-9.13 -2.47,-2.7 -6.66,-2.87 -9.35,-0.39 -77.25,70.57 -161.24,133.49 -250.72,186.86 -89.32,53.56 -183.99,97.88 -282.23,130.74 -98.22,32.73 -199.94,54.52 -302.49,61.89 -102.5,7.48 -205.73,0.56 -305.1,-22.22 -6.3,-1.04 -12.46,-2.73 -18.6,-4.44l-18.49 -4.93 -18.47 -4.9c-6.18,-1.55 -12.31,-3.29 -18.33,-5.42 -24.19,-8.09 -48.64,-15.34 -72.19,-25.24 -47.85,-17.72 -93.6,-40.78 -138.75,-64.54 -58.86,-32.88 -115.33,-70.15 -169.13,-111.09 -11.87,-8.21 -23.62,-16.99 -34.95,-26.13 -11.7,-9.44 -23.17,-19.49 -34.17,-29.86 -4,-3.42 -8.06,-6.77 -12.03,-10.24 -76.91,-68.02 -148.88,-141.94 -214.51,-221.41 -65.76,-79.36 -126.47,-163.27 -183.73,-250.02 -57.45,-86.59 -111.91,-175.64 -165.87,-265.52 -54.09,-89.78 -108.01,-180.22 -163.98,-270.05 -41.13,-66.13 -83.69,-131.77 -128.39,-196.34l-0.88 -1.28 -0.51 -0.74c-8.38,-12.07 -16.83,-24.12 -25.34,-36.11l0.11 -0.06c-10.74,-15.13 -21.77,-30.4 -33.13,-45.79 -17.83,-24.15 -35.6,-47.46 -53.25,-69.94l0.08 -0.07zm-133.66 63.54c-67.08,23.46 -131.66,38.05 -202.2,49.91 -197.01,32.74 -402.42,21.63 -595.95,-29.19 -48.68,-11.92 -94.19,-27.65 -135.86,-47.59 -41.2,-20.28 -77.28,-45.66 -103.12,-76.33 -12.7,-15.29 -23.01,-32.4 -30.27,-49.87 -7.14,-17.38 -11.96,-36.06 -13.27,-55.76 -2.57,-39.23 5.39,-81.56 23.79,-119.91 8.95,-19.2 19.95,-37.64 32.95,-54.43 13.12,-16.63 27.81,-31.44 44.9,-45.49 33.51,-27.68 72.65,-47.37 115.31,-58.88 42.66,-11.59 88.64,-15.03 135.28,-12.01 45.84,3.07 92.21,12.41 137.73,26.04 1.64,-14.96 3.32,-29.88 4.9,-44.95 2.9,-27.28 5.61,-54.32 8.27,-81.33 -45.73,-12.91 -92.99,-22.22 -141.63,-26.08 -58.06,-4.49 -118.35,-1.18 -177.4,14.07 -58.94,15.01 -116.18,42.82 -164.2,81.53 -23.79,18.95 -46.63,41.27 -66.27,65.72 -19.49,24.54 -35.96,51.25 -49.52,79.46 -27.14,56.28 -41.07,120.21 -37.08,185.83 2.02,32.78 9.77,65.85 22.44,97.02 12.67,31.09 29.87,59.41 50.54,84.69 41.76,50.24 94.07,85.69 146.73,112.1 52.9,25.87 107.33,44.47 160.52,58 106.21,28.83 215.31,45.47 324.96,51.2 109.65,5.63 220.03,-0.02 328.84,-17.99 93.3,-15.36 180.45,-37.6 269.04,-72.68 -11.1,-14.73 -22.37,-29.4 -33.63,-43.8 -18.15,-23.2 -36.88,-46.48 -55.8,-69.28z"/>
   <path class="fil0" d="M2811.43 2360.46c4.04,-2.12 8.12,-4.31 12.21,-6.58 1.55,-0.84 3.06,-1.69 4.58,-2.55l8.86 -5.6 17.72 -11.21 29.42 -19.03c5.99,-3.59 11.59,-7.82 17.19,-12.03l16.87 -12.54 33.68 -25.17c11.25,-8.36 21.54,-17.73 32.33,-26.54 84.67,-72.51 158.98,-157.57 218.85,-252.31 59.8,-94.69 105.09,-199.38 130.39,-309.45 25.34,-109.96 30.58,-225.01 14.13,-336.91 -16.06,-111.86 -54.46,-220.35 -107.87,-317.82 -52.85,-98.07 -121.54,-186.97 -199.89,-264.85 -78.43,-77.94 -167,-144.63 -261.38,-200.07 -161.33,-94.9 -322.43,-153.74 -504.49,-188.49 -3.79,17.16 -7.14,34.44 -9.85,51.7 -3.08,19.67 -5.46,39.6 -7.16,59.51 168.45,34.26 315.43,90.23 461.49,178.06 172.56,103.12 319.64,247.8 412.03,422.87 23.13,43.86 42.8,88.63 58.05,134.96 15.3,46.27 26.35,93.79 32.82,141.89 13.03,96.2 7.5,194.58 -15.36,289.14 -22.53,94.67 -62.51,185.35 -115.52,267.8 -53.01,82.58 -119.27,156.8 -194.38,220.71 -9.58,7.72 -18.75,16.1 -28.66,23.32l-29.57 21.84 -14.75 10.95c-4.92,3.68 -9.79,7.38 -15.12,10.48l-31.21 19.62 -15.58 9.83 -7.78 4.92c-1.33,0.73 -2.67,1.48 -4.06,2.2 -1.36,0.75 -2.74,1.47 -4.08,2.17l-16.47 8.49 3.67 4.93c15.02,18.56 29.75,37.6 43.92,56.73 11.87,16.04 23.59,32.43 34.97,49.03z"/>
  </g>
 </g>
</svg>
